<svg width="148" height="109" viewBox="0 0 148 109" fill="none" xmlns="http://www.w3.org/2000/svg">
<path d="M124.59 85.6233C120.03 90.1829 114.622 93.6551 108.569 95.7925C106.633 96.4369 104.896 96.8827 102.919 97.5271C100.094 98.1715 97.0681 98.6174 94.0418 98.6174C93.5988 98.6174 93.5988 98.6174 93.1931 98.6174C82.7823 98.6174 73.0561 95.1481 65.2257 88.6496C64.1354 87.8009 63.0451 86.7135 61.9577 85.8246L59.7772 83.6441L54.8148 78.6817L41.1734 65.0403C39.2374 63.1043 39.2374 60.078 41.1734 57.8974C42.2637 56.8072 43.354 56.3641 44.6427 56.3641C45.9344 56.3641 47.226 56.8072 48.1121 57.8974L68.6921 78.4775C70.6281 80.4135 72.8087 81.9468 74.9864 83.4398C80.1932 86.7078 86.2459 88.4022 92.7415 88.4022C95.5664 88.4022 98.5927 87.9592 101.176 87.3119C102.911 86.8689 104.645 86.2216 106.138 85.5772C110.054 83.8426 113.724 81.4606 116.955 78.1927C130.15 64.9972 130.15 43.3269 116.955 30.0882C110.255 23.3883 101.579 20.1204 92.9026 20.1204C86.2027 20.1204 79.7071 22.0564 73.8558 25.9716C71.0309 23.7911 68.0046 21.855 64.5324 20.3217C72.7655 13.6219 82.9348 10.1525 92.9026 10.1525C104.162 10.1525 115.422 14.4705 124.098 22.9453C141.7 40.3437 141.7 68.3112 124.59 85.6233ZM46.3803 98.6174C36.6138 98.6174 27.7363 94.5008 21.0364 87.5593C6.95195 73.4749 6.95195 50.7143 21.0364 36.8715C27.7363 30.1716 36.8555 26.2593 46.3803 26.2593H46.5816C48.5177 26.2593 50.051 26.4607 51.7885 26.7023C53.7245 27.1453 55.4621 27.3467 57.4384 27.9939C60.9077 29.0842 64.1383 30.8189 66.9632 32.7549C68.2549 33.8452 69.7881 34.6909 70.8784 36.0229C71.3214 36.4659 71.5228 36.6672 71.9687 37.1131L74.552 39.6964L86.6975 51.8448C88.6335 53.7809 88.6335 56.8072 86.6975 58.9877C85.6072 60.078 84.517 60.521 83.2282 60.521C81.9365 60.521 80.6449 60.078 79.7589 58.9877L67.6105 46.8393L65.0272 44.256C64.5842 43.813 64.1785 43.6117 63.9369 43.1658C60.4676 40.1395 56.351 38.2034 51.7885 37.3145C50.2552 36.8715 48.5206 36.8715 47.0275 36.8715C46.8262 36.8715 46.5845 36.8715 46.3832 36.8715C39.6833 37.0729 33.5904 39.6964 28.8294 44.4574C18.6602 54.6266 18.6602 70.8916 28.8294 81.0608C33.7918 86.0231 40.0889 88.6467 47.2318 88.6467H51.7914L56.1093 92.7633C58.2899 94.9438 60.4273 97.0812 63.0509 98.6145H46.3803V98.6174ZM131.531 16.0901C121.362 5.92087 107.68 0.270996 93.1931 0.270996C78.706 0.270996 65.0243 5.92087 54.8551 16.0901L53.7648 17.1804C51.1815 16.7373 48.8025 16.536 46.1789 16.536C34.0305 16.536 22.328 21.2969 13.6921 30.1774C-4.30753 48.177 -4.30753 77.1916 13.6921 95.1912C22.3683 103.867 33.8291 108.628 46.1789 108.628H93.3945H93.8375C94.0389 108.628 94.2805 108.628 94.2805 108.628C108.566 108.427 121.802 102.777 131.77 92.8093C152.758 71.5388 152.758 37.116 131.531 16.0901Z" fill="#D41818"/>
</svg>
