<svg width="148" height="109" viewBox="0 0 148 109" fill="none" xmlns="http://www.w3.org/2000/svg">
<path fill-rule="evenodd" clip-rule="evenodd" d="M147.358 54.4552C147.358 84.1882 123.195 108.597 93.4617 108.597H45.545C20.6446 108.597 0.413086 88.1198 0.413086 63.2195C1.03086 34.0566 25.6035 14.3413 53.1625 18.4972C89.4638 -20.8033 147.967 8.5553 147.358 54.4552ZM45.463 26.1966C25.1496 26.1966 8.60399 42.8241 8.60399 63.2195C8.60399 83.6148 25.1496 100.324 45.545 100.324H64.8755C61.1896 97.9489 57.7494 94.6726 54.7188 91.56H45.545C29.7366 91.56 16.8768 78.7003 16.8768 62.8919C16.8768 47.0834 29.7365 34.3056 45.545 34.3056C63.6176 35.1953 66.7174 44.9108 80.9296 58.3869C84.8933 62.1911 90.424 56.6999 86.8271 52.6532C68.6415 33.5084 63.9566 27.1962 45.463 26.1966ZM139.085 54.2095C138.841 12.8215 90.0747 -5.53298 62.3363 20.8726C65.1212 22.0193 67.7423 23.3298 70.1996 24.968C94.8324 5.73933 130.466 22.4846 130.812 54.2095C131.752 84.7734 93.464 105.489 67.0051 80.5842L45.1354 58.7145C41.2318 54.9808 35.5511 60.3489 39.238 64.4481L61.1896 86.4817C88.6428 113.576 137.541 97.6716 139.085 54.2095Z" fill="#F7F7F7"/>
</svg>
