<svg width="99" height="109" viewBox="0 0 99 109" fill="none" xmlns="http://www.w3.org/2000/svg">
<path d="M98.2282 95.1347C98.2685 102.601 92.2474 108.68 84.7858 108.72C84.2311 108.725 83.6719 108.693 83.1217 108.626C76.197 107.602 71.1242 101.576 71.2942 94.58V14.1403C71.1287 7.13499 76.2149 1.10939 83.1441 0.0939396C90.5564 -0.77389 97.2709 4.5315 98.1387 11.9438C98.2014 12.4896 98.2327 13.0353 98.2282 13.5856V95.1347Z" fill="#F7F7F7"/>
<path d="M13.4653 81.8042C20.9045 81.8042 26.9346 87.8343 26.9346 95.2735C26.9346 102.713 20.9045 108.743 13.4653 108.743C6.02617 108.743 -0.00390625 102.713 -0.00390625 95.2735C-0.00390625 87.8343 6.02617 81.8042 13.4653 81.8042ZM48.9032 40.9849C41.4283 41.3965 35.6308 47.6637 35.8053 55.1476V91.3235C35.8053 101.143 40.1265 107.101 46.4563 108.371C53.7613 109.852 60.8784 105.133 62.3591 97.8278C62.5425 96.9331 62.6319 96.025 62.6275 95.1125V54.5213C62.6409 47.0553 56.6019 40.9939 49.1358 40.9805C49.0598 40.9805 48.9793 40.9805 48.9032 40.9849Z" fill="#F7F7F7"/>
</svg>
