<svg width="99" height="109" viewBox="0 0 99 109" fill="none" xmlns="http://www.w3.org/2000/svg">
<path d="M98.2276 95.1324C98.2678 102.598 92.2468 108.677 84.7855 108.718C84.2308 108.722 83.6716 108.691 83.1214 108.624C76.1969 107.599 71.1242 101.574 71.2942 94.5777V14.1399C71.1287 7.13482 76.2147 1.10936 83.1438 0.0939373C90.556 -0.773871 97.2703 4.53139 98.1381 11.9436C98.2007 12.4893 98.232 13.035 98.2276 13.5852V95.1324Z" fill="#F9AB00"/>
<path d="M13.4689 81.8023C20.9079 81.8023 26.9379 87.8322 26.9379 95.2712C26.9379 102.71 20.9079 108.74 13.4689 108.74C6.02993 108.74 0 102.71 0 95.2712C0 87.8322 6.02993 81.8023 13.4689 81.8023ZM48.9059 40.984C41.4312 41.3955 35.6338 47.6625 35.8083 55.1462V91.3213C35.8083 101.14 40.1294 107.098 46.4591 108.369C53.7639 109.85 60.8808 105.13 62.3614 97.8254C62.5448 96.9308 62.6343 96.0227 62.6298 95.1102V54.52C62.6433 47.0542 56.6044 40.9929 49.1385 40.9795C49.0625 40.9795 48.982 40.9795 48.9059 40.984Z" fill="#E37400"/>
</svg>
