<svg width="97" height="109" viewBox="0 0 97 109" fill="none" xmlns="http://www.w3.org/2000/svg">
<path d="M96.3376 0L87.6025 97.8546L48.3381 108.74L9.18185 97.87L0.456055 0H96.3376Z" fill="#264DE4"/>
<path d="M48.3965 100.42L80.124 91.6237L87.5887 8.00244H48.3965V100.42Z" fill="#2965F1"/>
<path d="M48.397 44.3008H20.46L21.5358 56.304H48.397V44.3008Z" fill="#EBEBEB"/>
<path d="M48.3966 20.0059H48.3551H18.2979L19.389 32.0093H48.3966V20.0059Z" fill="#EBEBEB"/>
<path d="M22.0723 62.3062L23.7539 81.1531L48.3419 87.9789L48.3972 87.9636V75.4751L48.3446 75.4891L34.9763 71.8794L34.1218 62.3062H27.6258H22.0723Z" fill="#EBEBEB"/>
<path d="M63.1363 56.3042L61.743 71.8716L48.3555 75.485V87.973L72.963 81.153L73.1435 79.1251L75.9642 47.5242L76.2571 44.3009L78.4241 20.0059H48.3555V32.0093H65.2694L64.1772 44.3009H48.3555V56.3042H63.1363Z" fill="white"/>
</svg>
