<svg width="109" height="109" viewBox="0 0 109 109" fill="none" xmlns="http://www.w3.org/2000/svg">
<path d="M56.0187 108.743H52.7961C52.6453 108.687 52.4966 108.675 52.3458 108.675C50.6251 108.592 48.9171 108.456 47.224 108.224C44.0566 107.814 40.9423 107.118 37.9109 106.149C32.7084 104.483 27.8607 102.093 23.3677 98.9792C19.2019 96.0837 15.5161 92.6699 12.3063 88.7378C8.52284 84.1216 5.57426 79.0274 3.48391 73.4298C1.61237 68.4588 0.492846 63.3116 0.150828 57.9986C0.138082 57.7118 0.0955951 57.425 0 57.1383V51.5258C0.0955951 51.2793 0.135957 51.0202 0.150828 50.761C0.218807 49.4907 0.354764 48.2203 0.520462 46.9648C1.34046 40.902 3.14189 35.1514 5.91415 29.7025C7.82605 25.9466 10.148 22.4521 12.8777 19.2274C15.582 16.0324 18.6134 13.1773 21.972 10.679C27.4485 6.60881 33.471 3.67298 40.0522 1.87154C43.2472 0.998438 46.5123 0.424867 49.8157 0.150828C50.402 0.0955951 51.0181 0.138082 51.6044 0H57.1213C57.544 0.123211 57.9816 0.0552327 58.4044 0.0955951C60.5903 0.286785 62.7614 0.560825 64.9176 0.983567C71.7048 2.3219 77.9992 4.8626 83.8178 8.61631C88.3384 11.5245 92.3258 15.0339 95.8076 19.1169C98.6074 22.3947 100.982 25.9594 102.922 29.8087C105.216 34.3569 106.854 39.1218 107.785 44.1331C108.275 46.7821 108.645 49.4588 108.658 52.1631C108.658 52.3415 108.698 52.5327 108.713 52.709V55.9316C108.658 56.1356 108.658 56.3544 108.645 56.5732C108.645 57.0915 108.645 57.612 108.605 58.1303C108.358 61.4358 107.84 64.6988 107.02 67.9214C105.45 73.9715 102.922 79.584 99.4126 84.7589C96.8039 88.6103 93.7597 92.0793 90.263 95.1511C86.7812 98.2102 82.9702 100.791 78.832 102.879C74.065 105.282 69.0537 106.95 63.7959 107.863C61.7757 108.218 59.7406 108.449 57.6927 108.573C57.1531 108.634 56.5796 108.622 56.0187 108.743ZM34.0467 82.796C34.9474 82.8236 35.9586 82.7131 36.9698 82.4965C39.9609 81.84 42.5016 80.4762 44.4539 78.0587C45.6414 76.5844 46.6398 74.9869 47.5002 73.3066C48.5113 71.3267 49.3568 69.264 50.094 67.1757C50.9947 64.6499 51.7594 62.0688 52.3479 59.4602C52.675 57.9986 52.3075 57.083 50.6952 56.5796C48.6473 55.938 46.5846 55.3644 44.4815 54.8992C40.9997 54.1344 37.4903 53.6437 33.9108 53.7648C32.8996 53.8052 31.8905 53.9156 30.8921 54.092C27.9966 54.5976 25.5388 55.9359 23.5313 58.0517C20.1026 61.6567 18.7388 65.9585 19.5843 70.8615C20.7994 77.8675 27.0003 82.8512 34.0467 82.796ZM39.8228 32.5703C39.7824 33.5942 39.9736 34.7138 40.288 35.8333C40.8892 37.964 41.8855 39.9163 43.0603 41.7602C45.737 45.9536 49.1104 49.5438 52.7706 52.8768C53.0702 53.1509 53.4271 53.3824 53.8094 53.5588C54.1918 53.7499 54.5742 53.7499 54.9693 53.5864C55.3517 53.4228 55.6937 53.1912 55.9805 52.8896C57.2509 51.6341 58.5063 50.3765 59.7087 49.0785C61.4018 47.2346 63.0142 45.3376 64.4757 43.3025C65.8013 41.4585 66.9888 39.519 67.8619 37.4159C68.735 35.3256 69.1599 33.1694 68.8731 30.9027C68.3951 27.1618 66.7976 23.9922 63.9425 21.5068C60.5669 18.5731 56.6348 17.3983 52.2098 18.0526C45.0126 19.119 39.7952 25.4559 39.8228 32.5703ZM75.3013 82.7153C75.6561 82.7025 76.2977 82.7153 76.9392 82.6197C81.2537 81.9781 84.6675 79.8878 87.0723 76.2297C88.9566 73.3491 89.7213 70.1519 89.3666 66.7254C89.0394 63.5155 87.7414 60.7029 85.5428 58.3406C83.6309 56.2928 81.3493 54.8716 78.5919 54.2704C77.0752 53.9433 75.5329 53.8052 73.9906 53.7797C72.1616 53.7521 70.3453 53.9156 68.5417 54.1621C64.9367 54.6677 61.4124 55.528 57.9455 56.6199C57.5908 56.7283 57.2636 56.894 56.9768 57.1255C56.6072 57.425 56.4032 57.7947 56.4032 58.2727C56.4032 58.6827 56.4436 59.0926 56.5392 59.5026C56.758 60.3226 56.9492 61.1405 57.168 61.9478C58.1792 65.6356 59.4071 69.2406 61.0874 72.682C62.0561 74.6619 63.1778 76.5334 64.6117 78.2138C65.7036 79.4841 66.9739 80.5208 68.4907 81.2452C70.5641 82.2373 72.7203 82.7705 75.3013 82.7153Z" fill="#F7F7F7"/>
</svg>
