<svg width="109" height="109" viewBox="0 0 109 109" fill="none" xmlns="http://www.w3.org/2000/svg">
<path d="M56.0154 108.74H52.7929C52.6421 108.685 52.4934 108.672 52.3425 108.672C50.6219 108.589 48.9139 108.453 47.2209 108.222C44.0536 107.812 40.9394 107.115 37.908 106.146C32.7057 104.481 27.858 102.091 23.3652 98.9768C19.1995 96.0814 15.5138 92.6677 12.304 88.7356C8.52068 84.1196 5.57217 79.0255 3.48187 73.428C1.61038 68.4572 0.490881 63.3101 0.148871 57.9972C0.136125 57.7104 0.0936397 57.4237 -0.00195312 57.1369V51.5245C0.0936397 51.2781 0.134001 51.0189 0.148871 50.7598C0.216848 49.4895 0.352802 48.2191 0.518497 46.9637C1.33847 40.901 3.13986 35.1505 5.91205 29.7017C7.82391 25.946 10.1458 22.4516 12.8755 19.2269C15.5797 16.032 18.611 13.1769 21.9695 10.6788C27.4459 6.60865 33.4683 3.67289 40.0493 1.87149C43.2442 0.998414 46.5093 0.424857 49.8125 0.150824C50.3988 0.0955928 51.0149 0.138078 51.6012 0H57.1179C57.5407 0.123209 57.9783 0.0552314 58.401 0.0955928C60.5869 0.286778 62.7579 0.560811 64.9141 0.983544C71.7011 2.32184 77.9954 4.86249 83.8138 8.6161C88.3343 11.5242 92.3216 15.0336 95.8033 19.1164C98.6031 22.3942 100.978 25.9588 102.917 29.808C105.212 34.3561 106.85 39.1208 107.78 44.132C108.271 46.781 108.64 49.4576 108.653 52.1618C108.653 52.3402 108.693 52.5314 108.708 52.7077V55.9303C108.653 56.1342 108.653 56.353 108.64 56.5718C108.64 57.0901 108.64 57.6106 108.6 58.1289C108.354 61.4343 107.835 64.6972 107.015 67.9198C105.445 73.9697 102.918 79.5821 99.4082 84.7568C96.7996 88.6082 93.7555 92.0771 90.2589 95.1488C86.7772 98.2078 82.9662 100.789 78.8281 102.877C74.0612 105.28 69.05 106.947 63.7924 107.861C61.7722 108.215 59.7372 108.447 57.6894 108.57C57.1498 108.632 56.5762 108.619 56.0154 108.74ZM34.044 82.794C34.9446 82.8216 35.9558 82.7111 36.967 82.4945C39.958 81.8381 42.4986 80.4743 44.4508 78.0568C45.6383 76.5826 46.6367 74.9851 47.497 73.3048C48.5082 71.325 49.3537 69.2623 50.0908 67.1741C50.9915 64.6484 51.7562 62.0673 52.3447 59.4587C52.6718 57.9972 52.3043 57.0816 50.692 56.5782C48.6442 55.9367 46.5815 55.3631 44.4784 54.8979C40.9967 54.1331 37.4874 53.6424 33.908 53.7635C32.8968 53.8039 31.8878 53.9143 30.8894 54.0907C27.994 54.5962 25.5362 55.9345 23.5287 58.0503C20.1001 61.6552 18.7364 65.9569 19.5818 70.8598C20.7969 77.8656 26.9977 82.8492 34.044 82.794ZM39.8199 32.5695C39.7795 33.5934 39.9707 34.7129 40.2851 35.8324C40.8863 37.9631 41.8826 39.9153 43.0573 41.7592C45.7339 45.9525 49.1073 49.5426 52.7674 52.8756C53.0669 53.1496 53.4238 53.3811 53.8062 53.5575C54.1885 53.7486 54.5709 53.7486 54.966 53.5851C55.3484 53.4215 55.6904 53.19 55.9772 52.8883C57.2475 51.6329 58.503 50.3753 59.7053 49.0773C61.3984 47.2335 63.0107 45.3365 64.4722 43.3014C65.7978 41.4575 66.9852 39.5181 67.8583 37.415C68.7314 35.3247 69.1562 33.1686 68.8695 30.902C68.3915 27.1611 66.794 23.9917 63.939 21.5063C60.5635 18.5726 56.6315 17.3979 52.2066 18.0522C45.0095 19.1186 39.7923 25.4553 39.8199 32.5695ZM75.2976 82.7133C75.6523 82.7005 76.2938 82.7133 76.9354 82.6177C81.2498 81.9761 84.6635 79.8858 87.0682 76.2278C88.9525 73.3473 89.7172 70.1503 89.3624 66.7238C89.0353 63.514 87.7374 60.7014 85.5387 58.3392C83.6269 56.2914 81.3454 54.8703 78.5881 54.2691C77.0713 53.942 75.5291 53.8039 73.9869 53.7784C72.1579 53.7508 70.3416 53.9143 68.5381 54.1608C64.9332 54.6663 61.409 55.5267 57.9422 56.6186C57.5874 56.7269 57.2603 56.8926 56.9735 57.1241C56.6039 57.4237 56.3999 57.7933 56.3999 58.2713C56.3999 58.6812 56.4403 59.0912 56.5359 59.5012C56.7547 60.3212 56.9459 61.139 57.1647 61.9463C58.1758 65.634 59.4037 69.2389 61.084 72.6803C62.0526 74.6601 63.1743 76.5316 64.6082 78.2119C65.7 79.4822 66.9704 80.5189 68.4871 81.2433C70.5604 82.2353 72.7166 82.7685 75.2976 82.7133Z" fill="url(#paint0_linear_204_1214)"/>
<defs>
<linearGradient id="paint0_linear_204_1214" x1="54.3569" y1="0" x2="54.3569" y2="108.741" gradientUnits="userSpaceOnUse">
<stop stop-color="#DD3069"/>
<stop offset="1" stop-color="#942049"/>
</linearGradient>
</defs>
</svg>
