<svg width="109" height="109" viewBox="0 0 109 109" fill="none" xmlns="http://www.w3.org/2000/svg">
<path d="M37.9687 71.2353C32.854 71.2353 28.8228 69.7615 25.8753 66.814C22.9278 63.8232 21.4541 59.6837 21.4541 54.3955C21.4541 50.9713 22.1043 48.0021 23.4046 45.488C24.705 42.9307 26.5255 40.9584 28.8662 39.5714C31.2068 38.141 33.8943 37.4258 36.9284 37.4258C39.9193 37.4258 42.4333 38.0543 44.4706 39.3113C46.5078 40.5683 48.0682 42.3672 49.1519 44.7078C50.2355 47.0051 50.7773 49.7359 50.7773 52.9001V54.8507H25.4852V51.5347H47.3314L46.2261 52.38C46.2261 48.9123 45.4458 46.2032 43.8854 44.2527C42.325 42.3022 40.006 41.3269 36.9284 41.3269C33.6775 41.3269 31.1418 42.4755 29.3213 44.7728C27.5008 47.0268 26.5905 50.0827 26.5905 53.9404V54.5256C26.5905 58.6001 27.5875 61.6993 29.5814 63.8232C31.6186 65.9038 34.4578 66.9441 38.0988 66.9441C40.0493 66.9441 41.8698 66.6623 43.5603 66.0988C45.2941 65.492 46.9413 64.5167 48.5017 63.173L50.3222 66.8791C48.8918 68.2661 47.0713 69.3497 44.8607 70.13C42.6934 70.8668 40.3961 71.2353 37.9687 71.2353Z" fill="#F7F7F7"/>
<path d="M54.1608 70.6501L68.7899 52.51V55.1107L54.941 38.0109H61.3128L71.7808 51.3397H69.8952L80.2982 38.0109H86.6049L72.9511 55.0457V52.6401L87.4502 70.6501H81.0134L69.8302 56.4111H71.7808L60.4676 70.6501H54.1608Z" fill="#F7F7F7"/>
<rect x="1.69616" y="1.69616" width="105.35" height="105.35" rx="52.6752" stroke="#F7F7F7" stroke-width="3.39232"/>
</svg>
