<svg width="73" height="109" viewBox="0 0 73 109" fill="none" xmlns="http://www.w3.org/2000/svg">
    <g clip-path="url(#clip0_204_508)">
        <path
            d="M18.1335 108.743C28.1379 108.743 36.2573 100.623 36.2573 90.6189V72.4951H18.1335C8.12921 72.4951 0.00976562 80.6146 0.00976562 90.6189C0.00976562 100.623 8.12921 108.743 18.1335 108.743Z"
            fill="#F7F7F7"
        />
        <path
            d="M0.00976562 54.3713C0.00976562 44.367 8.12921 36.2476 18.1335 36.2476H36.2573V72.4951H18.1335C8.12921 72.4951 0.00976562 64.3756 0.00976562 54.3713Z"
            fill="#F7F7F7"
        />
        <path
            d="M0.00683594 18.1238C0.00683594 8.11945 8.12628 0 18.1306 0H36.2544V36.2475H18.1306C8.12628 36.2475 0.00683594 28.1281 0.00683594 18.1238Z"
            fill="#F7F7F7"
        />
        <path
            d="M36.2568 0H54.3806C64.3849 0 72.5044 8.11945 72.5044 18.1238C72.5044 28.1281 64.3849 36.2475 54.3806 36.2475H36.2568V0Z"
            fill="#F7F7F7"
        />
        <path
            d="M72.5044 54.3713C72.5044 64.3756 64.3849 72.4951 54.3806 72.4951C44.3763 72.4951 36.2568 64.3756 36.2568 54.3713C36.2568 44.367 44.3763 36.2476 54.3806 36.2476C64.3849 36.2476 72.5044 44.367 72.5044 54.3713Z"
            fill="#F7F7F7"
        />
    </g>
    <defs>
        <clipPath id="clip0_204_508">
            <rect width="72.5096" height="108.743" fill="white" />
        </clipPath>
    </defs>
</svg>
