<svg width="73" height="109" viewBox="0 0 73 109" fill="none" xmlns="http://www.w3.org/2000/svg">
<g clip-path="url(#clip0_204_520)">
<path d="M18.1302 108.74C28.1342 108.74 36.2535 100.621 36.2535 90.6165V72.4932H18.1302C8.12609 72.4932 0.00683594 80.6124 0.00683594 90.6165C0.00683594 100.621 8.12609 108.74 18.1302 108.74Z" fill="#0ACF83"/>
<path d="M0.00683594 54.3699C0.00683594 44.3658 8.12609 36.2466 18.1302 36.2466H36.2535V72.4932H18.1302C8.12609 72.4932 0.00683594 64.374 0.00683594 54.3699Z" fill="#A259FF"/>
<path d="M0.00683594 18.1233C0.00683594 8.11925 8.12609 0 18.1302 0H36.2535V36.2467H18.1302C8.12609 36.2467 0.00683594 28.1274 0.00683594 18.1233Z" fill="#F24E1E"/>
<path d="M36.2539 0H54.3772C64.3813 0 72.5006 8.11925 72.5006 18.1233C72.5006 28.1274 64.3813 36.2467 54.3772 36.2467H36.2539V0Z" fill="#FF7262"/>
<path d="M72.5006 54.3699C72.5006 64.374 64.3813 72.4932 54.3772 72.4932C44.3732 72.4932 36.2539 64.374 36.2539 54.3699C36.2539 44.3658 44.3732 36.2466 54.3772 36.2466C64.3813 36.2466 72.5006 44.3658 72.5006 54.3699Z" fill="#1ABCFE"/>
</g>
<defs>
<clipPath id="clip0_204_520">
<rect width="72.5078" height="108.74" fill="white"/>
</clipPath>
</defs>
</svg>
