<svg width="109" height="109" viewBox="0 0 109 109" fill="none" xmlns="http://www.w3.org/2000/svg">
<path d="M106.688 49.5277L59.2126 2.05249C58.5625 1.4021 57.7907 0.886168 56.9411 0.534161C56.0916 0.182155 55.1811 0.000976563 54.2615 0.000976562C53.3419 0.000976563 52.4314 0.182155 51.5819 0.534161C50.7323 0.886168 49.9605 1.4021 49.3104 2.05249L39.4559 11.9071L51.961 24.4122C54.8698 23.3927 58.1999 24.0893 60.5175 26.4069C61.6207 27.512 62.3908 28.9052 62.7399 30.4272C63.089 31.9493 63.003 33.5388 62.4918 35.0143L74.5449 47.0675C77.4605 46.0616 80.8246 46.7107 83.1524 49.0452C83.9262 49.8192 84.5399 50.738 84.9586 51.7492C85.3773 52.7605 85.5927 53.8442 85.5926 54.9387C85.5924 56.0332 85.3767 57.1169 84.9577 58.128C84.5387 59.1391 83.9247 60.0578 83.1507 60.8316C82.3766 61.6054 81.4578 62.2191 80.4466 62.6378C79.4354 63.0565 78.3516 63.2719 77.2571 63.2718C76.1626 63.2716 75.0789 63.0559 74.0678 62.6369C73.0567 62.2179 72.1381 61.6039 71.3643 60.8299C68.9176 58.3832 68.3128 54.7812 69.5497 51.7671L58.3087 40.5261V70.1067C59.1247 70.5106 59.8704 71.0429 60.5175 71.6835C61.2912 72.4573 61.9051 73.3759 62.3238 74.3869C62.7426 75.3979 62.9581 76.4815 62.9581 77.5758C62.9581 78.6701 62.7426 79.7537 62.3238 80.7647C61.9051 81.7757 61.2912 82.6944 60.5175 83.4682C59.7437 84.242 58.825 84.8558 57.814 85.2745C56.803 85.6933 55.7194 85.9089 54.6251 85.9089C53.5308 85.9089 52.4472 85.6933 51.4362 85.2745C50.4252 84.8558 49.5065 84.242 48.7328 83.4682C47.958 82.6949 47.3434 81.7764 46.9241 80.7653C46.5047 79.7543 46.2889 78.6704 46.2889 77.5758C46.2889 76.4812 46.5047 75.3974 46.9241 74.3863C47.3434 73.3752 47.958 72.4567 48.7328 71.6835C49.5381 70.8815 50.4318 70.2732 51.4614 69.8655V40.0096C50.4692 39.6018 49.5381 39.0003 48.7328 38.1916C47.5627 37.0229 46.7672 35.5323 46.4476 33.9097C46.1281 32.2872 46.299 30.6062 46.9385 29.0812L34.6033 16.7528L2.04931 49.2728C1.39841 49.923 0.882046 50.695 0.529739 51.5449C0.177432 52.3947 -0.00390625 53.3056 -0.00390625 54.2256C-0.00390625 55.1456 0.177432 56.0565 0.529739 56.9063C0.882046 57.7562 1.39841 58.5282 2.04931 59.1784L49.5279 106.65C50.178 107.301 50.9498 107.816 51.7993 108.169C52.6489 108.521 53.5594 108.702 54.479 108.702C55.3985 108.702 56.3091 108.521 57.1586 108.169C58.0081 107.816 58.78 107.301 59.4301 106.65L106.688 59.4672C107.339 58.8171 107.855 58.045 108.207 57.1952C108.56 56.3454 108.741 55.4344 108.741 54.5144C108.741 53.5945 108.56 52.6835 108.207 51.8337C107.855 50.9839 107.339 50.2118 106.688 49.5617" fill="#F03C2E"/>
</svg>
