<svg width="109" height="109" viewBox="0 0 109 109" fill="none" xmlns="http://www.w3.org/2000/svg">
<path d="M106.686 49.5289L59.2101 2.05254C58.56 1.40214 57.7882 0.886189 56.9386 0.534174C56.0891 0.18216 55.1785 0.000976563 54.2589 0.000976562C53.3393 0.000976563 52.4288 0.18216 51.5792 0.534174C50.7297 0.886189 49.9578 1.40214 49.3077 2.05254L39.4529 11.9073L51.9583 24.4127C54.8672 23.3933 58.1974 24.0899 60.515 26.4075C61.6182 27.5127 62.3884 28.9059 62.7375 30.428C63.0866 31.95 63.0006 33.5396 62.4894 35.0152L74.5428 47.0686C77.4585 46.0627 80.8227 46.7118 83.1505 49.0463C83.9243 49.8204 84.5381 50.7393 84.9568 51.7505C85.3755 52.7617 85.5909 53.8455 85.5907 54.94C85.5906 56.0345 85.3748 57.1183 84.9558 58.1294C84.5369 59.1405 83.9228 60.0592 83.1488 60.833C82.3747 61.6068 81.4559 62.2206 80.4446 62.6393C79.4334 63.058 78.3496 63.2734 77.2551 63.2733C76.1606 63.2731 75.0768 63.0574 74.0657 62.6384C73.0546 62.2194 72.1359 61.6054 71.3621 60.8313C68.9154 58.3846 68.3105 54.7825 69.5474 51.7683L58.3062 40.527V70.1084C59.1222 70.5123 59.868 71.0446 60.515 71.6852C61.2888 72.459 61.9026 73.3777 62.3214 74.3887C62.7402 75.3997 62.9558 76.4834 62.9558 77.5777C62.9558 78.672 62.7402 79.7557 62.3214 80.7667C61.9026 81.7777 61.2888 82.6964 60.515 83.4702C59.7412 84.244 58.8226 84.8578 57.8115 85.2766C56.8005 85.6954 55.7169 85.9109 54.6225 85.9109C53.5282 85.9109 52.4446 85.6954 51.4335 85.2766C50.4225 84.8578 49.5038 84.244 48.73 83.4702C47.9553 82.6969 47.3407 81.7784 46.9213 80.7673C46.502 79.7562 46.2861 78.6723 46.2861 77.5777C46.2861 76.4831 46.502 75.3992 46.9213 74.3881C47.3407 73.377 47.9553 72.4585 48.73 71.6852C49.5354 70.8832 50.4291 70.2749 51.4588 69.8672V40.0105C50.4665 39.6027 49.5354 39.0013 48.73 38.1925C47.5599 37.0238 46.7644 35.5331 46.4448 33.9105C46.1253 32.288 46.2962 30.607 46.9358 29.0819L34.6003 16.7532L2.04545 49.274C1.39454 49.9242 0.878161 50.6963 0.525846 51.5461C0.17353 52.396 -0.0078125 53.3069 -0.0078125 54.2269C-0.0078125 55.1469 0.17353 56.0579 0.525846 56.9077C0.878161 57.7576 1.39454 58.5297 2.04545 59.1798L49.5252 106.653C50.1753 107.303 50.9472 107.819 51.7967 108.171C52.6462 108.523 53.5568 108.704 54.4764 108.704C55.396 108.704 56.3066 108.523 57.1561 108.171C58.0056 107.819 58.7775 107.303 59.4276 106.653L106.686 59.4687C107.337 58.8185 107.854 58.0464 108.206 57.1966C108.558 56.3467 108.74 55.4357 108.74 54.5158C108.74 53.5958 108.558 52.6848 108.206 51.835C107.854 50.9851 107.337 50.213 106.686 49.5629" fill="#F7F7F7"/>
</svg>
