<svg width="112" height="109" viewBox="0 0 112 109" fill="none" xmlns="http://www.w3.org/2000/svg">
    <g clip-path="url(#clip0_204_1233)">
        <path
            fill-rule="evenodd"
            clip-rule="evenodd"
            d="M55.3989 0.604004C24.951 0.604004 0.272461 25.2825 0.272461 55.7305C0.272461 80.0768 16.0703 100.738 37.9699 108.048C40.7187 108.561 41.7457 106.84 41.7457 105.39C41.7457 104.061 41.6853 99.741 41.6853 95.1195C26.3405 98.4422 23.1084 88.6251 23.1084 88.6251C20.6013 82.2516 16.9765 80.5601 16.9765 80.5601C11.9623 77.1467 17.339 77.2072 17.339 77.2072C22.8668 77.5998 25.7968 82.8859 25.7968 82.8859C30.7204 91.3135 38.6949 88.8668 41.8363 87.4773C42.3196 83.913 43.7695 81.4965 45.3402 80.107C33.1067 78.7175 20.2086 73.9751 20.2086 52.8609C20.2086 46.8498 22.3533 41.9262 25.8874 38.0598C25.3135 36.6703 23.4407 31.0519 26.4311 23.4702C26.4311 23.4702 31.0527 21.9901 41.5947 29.1187C46.0048 27.9105 50.717 27.2762 55.3989 27.2762C60.0809 27.3064 64.7931 27.9105 69.2032 29.1187C79.715 21.9901 84.3366 23.4702 84.3366 23.4702C87.327 31.0519 85.4542 36.6703 84.8803 38.0598C88.4144 41.9262 90.5591 46.8498 90.5591 52.8609C90.5591 74.0355 77.661 78.6873 65.3972 80.0465C67.3606 81.7683 69.1428 85.1212 69.1428 90.2563C69.1428 97.6266 69.0824 103.577 69.0824 105.39C69.0824 106.87 70.0792 108.561 72.8582 108.048C94.7577 100.738 110.525 80.107 110.525 55.7305C110.525 25.2825 85.8469 0.604004 55.3989 0.604004Z"
            fill="#F7F7F7"
        />
        <path
            d="M21.143 79.7431C21.0224 80.0144 20.6004 80.1049 20.2084 79.924C19.8165 79.7431 19.5753 79.3813 19.726 79.11C19.8466 78.8386 20.2687 78.7482 20.6606 78.9291C21.0526 79.11 21.2938 79.4718 21.143 79.7431Z"
            fill="#F7F7F7"
        />
        <path
            d="M23.3782 82.2486C23.1069 82.4898 22.5944 82.3692 22.2627 82.0075C21.9009 81.6155 21.8406 81.103 22.112 80.8618C22.3833 80.6206 22.8657 80.7412 23.2275 81.103C23.5893 81.4949 23.6496 82.0075 23.3782 82.2486Z"
            fill="#F7F7F7"
        />
        <path
            d="M25.558 85.4235C25.2257 85.6652 24.682 85.4537 24.3195 84.9402C23.9872 84.4569 23.9872 83.8528 24.3195 83.6111C24.6518 83.3695 25.1955 83.5809 25.558 84.0642C25.9204 84.5777 25.9204 85.1819 25.558 85.4235Z"
            fill="#F7F7F7"
        />
        <path
            d="M28.5476 88.4748C28.2455 88.8071 27.6112 88.7165 27.1279 88.2634C26.6446 87.8103 26.5238 87.1759 26.8258 86.8437C27.1279 86.5114 27.7924 86.602 28.2455 87.0551C28.7288 87.5384 28.8496 88.1727 28.5476 88.4748Z"
            fill="#F7F7F7"
        />
        <path
            d="M32.6544 90.257C32.5336 90.6799 31.8992 90.8913 31.2649 90.7101C30.6306 90.5289 30.2379 90.0154 30.3587 89.5925C30.4795 89.1696 31.1139 88.9581 31.7482 89.1394C32.3523 89.3206 32.7752 89.8341 32.6544 90.257Z"
            fill="#F7F7F7"
        />
        <path
            d="M37.1539 90.5895C37.1841 91.0426 36.6404 91.4353 35.9758 91.4353C35.3113 91.4655 34.7978 91.0728 34.7676 90.6197C34.7676 90.1666 35.2811 89.7739 35.9456 89.7739C36.6102 89.7739 37.1539 90.1364 37.1539 90.5895Z"
            fill="#F7F7F7"
        />
        <path
            d="M41.3564 89.8941C41.447 90.3472 40.9939 90.8002 40.3294 90.9211C39.695 91.0419 39.0909 90.77 39.0305 90.3169C38.9399 89.8639 39.4232 89.4108 40.0575 89.2899C40.6918 89.1691 41.2657 89.441 41.3564 89.8941Z"
            fill="#F7F7F7"
        />
    </g>
    <defs>
        <clipPath id="clip0_204_1233">
            <rect width="111.008" height="108.743" fill="white" />
        </clipPath>
    </defs>
</svg>
