<svg width="111" height="109" viewBox="0 0 111 109" fill="none" xmlns="http://www.w3.org/2000/svg">
<path fill-rule="evenodd" clip-rule="evenodd" d="M55.3966 0.604004C24.9494 0.604004 0.271484 25.2819 0.271484 55.7291C0.271484 80.0748 16.069 100.735 37.968 108.045C40.7167 108.559 41.7437 106.837 41.7437 105.387C41.7437 104.058 41.6833 99.7386 41.6833 95.1172C26.3389 98.4398 23.1069 88.623 23.1069 88.623C20.5998 82.2496 16.9752 80.5581 16.9752 80.5581C11.961 77.1449 17.3376 77.2053 17.3376 77.2053C22.8652 77.598 25.7952 82.8839 25.7952 82.8839C30.7187 91.3113 38.693 88.8646 41.8343 87.4752C42.3176 83.9109 43.7675 81.4945 45.3382 80.105C33.1049 78.7156 20.2072 73.9733 20.2072 52.8596C20.2072 46.8487 22.3517 41.9252 25.8858 38.0589C25.3119 36.6694 23.4391 31.0512 26.4295 23.4696C26.4295 23.4696 31.0509 21.9895 41.5927 29.118C46.0027 27.9098 50.7148 27.2755 55.3966 27.2755C60.0785 27.3057 64.7906 27.9098 69.2006 29.118C79.7121 21.9895 84.3335 23.4696 84.3335 23.4696C87.3239 31.0512 85.4512 36.6694 84.8773 38.0589C88.4113 41.9252 90.5559 46.8487 90.5559 52.8596C90.5559 74.0337 77.6581 78.6854 65.3947 80.0446C67.358 81.7663 69.1402 85.1191 69.1402 90.2541C69.1402 97.6242 69.0797 103.575 69.0797 105.387C69.0797 106.867 70.0765 108.559 72.8554 108.045C94.7545 100.735 110.522 80.105 110.522 55.7291C110.522 25.2819 85.8438 0.604004 55.3966 0.604004Z" fill="#800080"/>
<path d="M21.1438 79.7424C21.023 80.0142 20.6001 80.1048 20.2075 79.9236C19.8148 79.7424 19.5731 79.3799 19.7242 79.108C19.845 78.8362 20.2679 78.7456 20.6605 78.9268C21.0532 79.108 21.2949 79.4705 21.1438 79.7424Z" fill="#800080"/>
<path d="M23.379 82.2495C23.1071 82.4912 22.5936 82.3704 22.2614 82.0079C21.8989 81.6152 21.8385 81.1017 22.1104 80.8601C22.3822 80.6184 22.8655 80.7393 23.228 81.1017C23.5904 81.4944 23.6508 82.0079 23.379 82.2495Z" fill="#800080"/>
<path d="M25.5531 85.421C25.2208 85.6627 24.6771 85.4513 24.3146 84.9378C23.9824 84.4545 23.9824 83.8503 24.3146 83.6087C24.6469 83.3671 25.1906 83.5785 25.5531 84.0618C25.9155 84.5753 25.9155 85.1794 25.5531 85.421Z" fill="#800080"/>
<path d="M28.5436 88.4718C28.2416 88.8041 27.6072 88.7135 27.124 88.2604C26.6407 87.8073 26.5198 87.173 26.8219 86.8407C27.124 86.5085 27.7885 86.5991 28.2416 87.0522C28.7249 87.5355 28.8457 88.1698 28.5436 88.4718Z" fill="#800080"/>
<path d="M32.6514 90.2541C32.5306 90.6769 31.8963 90.8884 31.2619 90.7071C30.6276 90.5259 30.2349 90.0124 30.3558 89.5895C30.4766 89.1667 31.1109 88.9552 31.7452 89.1365C32.3493 89.3177 32.7722 89.8312 32.6514 90.2541Z" fill="#800080"/>
<path d="M37.1528 90.5865C37.183 91.0396 36.6393 91.4323 35.9748 91.4323C35.3103 91.4625 34.7968 91.0698 34.7666 90.6167C34.7666 90.1637 35.2801 89.771 35.9446 89.771C36.6091 89.771 37.1528 90.1335 37.1528 90.5865Z" fill="#800080"/>
<path d="M41.3514 89.8916C41.442 90.3447 40.989 90.7978 40.3244 90.9186C39.6901 91.0394 39.086 90.7676 39.0256 90.3145C38.935 89.8614 39.4183 89.4083 40.0526 89.2875C40.6869 89.1667 41.2608 89.4385 41.3514 89.8916Z" fill="#800080"/>
</svg>
