<svg width="96" height="109" viewBox="0 0 96 109" fill="none" xmlns="http://www.w3.org/2000/svg">
<path d="M0.846273 3.59973L7.90371 93.887C8.00966 95.2428 8.92738 96.3989 10.2238 96.8099L47.3602 108.584C48.0169 108.792 48.722 108.792 49.3787 108.584L86.5151 96.8099C87.8116 96.3989 88.7293 95.2428 88.8352 93.887L95.8927 3.59973C96.0444 1.6586 94.5103 0 92.5634 0H4.17575C2.22886 0 0.69474 1.6586 0.846273 3.59973ZM77.7943 31.6128H31.7996L33.1877 44.413H76.794L73.9414 80.9045L48.3696 89.0119L22.7978 80.9045L21.3075 61.8398H34.7296V71.1913L48.7283 74.9483L62.6433 71.1913L63.7228 56.2877H20.8735L18.0286 19.8919H78.7103L77.7943 31.6128Z" fill="#F7F7F7"/>
</svg>
