<svg width="96" height="109" viewBox="0 0 96 109" fill="none" xmlns="http://www.w3.org/2000/svg">
<path d="M0.847249 3.59973L7.90469 93.887C8.01064 95.2428 8.92835 96.3989 10.2248 96.81L47.3612 108.584C48.0179 108.792 48.723 108.792 49.3797 108.584L86.5161 96.81C87.8125 96.3989 88.7303 95.2428 88.8362 93.887L95.8936 3.59973C96.0454 1.6586 94.5113 0 92.5644 0H4.17672C2.22983 0 0.695716 1.6586 0.847249 3.59973ZM77.7953 31.6128H31.8006L33.1887 44.413H76.7949L73.9424 80.9045L48.3706 89.0119L22.7988 80.9045L21.3085 61.8398H34.7306V71.1913L48.7292 74.9483L62.6443 71.1913L63.7238 56.2877H20.8744L18.0296 19.8919H78.7113L77.7953 31.6128Z" fill="#FC490B"/>
</svg>
