<svg width="110" height="109" viewBox="0 0 110 109" fill="none" xmlns="http://www.w3.org/2000/svg">
<path d="M109.428 0H0.685547V108.743H109.428V0Z" fill="#F7F7F7"/>
<path d="M29.2842 90.867L37.5963 85.8321C39.2051 88.6922 40.6649 91.0756 44.1506 91.0756C47.5172 91.0756 49.6325 89.7647 49.6325 84.6404V49.9321H59.8513V84.8192C59.8513 95.3955 53.6544 100.222 44.5975 100.222C36.4344 100.222 31.6974 95.9913 29.2842 90.867Z" fill="#171717"/>
<path d="M65.4229 89.7644L73.735 84.938C75.9396 88.5131 78.7699 91.1348 83.8048 91.1348C88.0354 91.1348 90.7465 89.0196 90.7465 86.0999C90.7465 82.5844 87.9758 81.3629 83.2984 79.3072L80.7362 78.2049C73.3775 75.0767 68.4617 71.1143 68.4617 62.8022C68.4617 55.1455 74.301 49.3062 83.4175 49.3062C89.9123 49.3062 94.5897 51.5704 97.9563 57.4693L90.0017 62.5638C88.2439 59.4356 86.367 58.1843 83.4473 58.1843C80.4681 58.1843 78.5613 60.091 78.5613 62.5638C78.5613 65.6324 80.4681 66.8837 84.8476 68.7607L87.4097 69.863C96.1091 73.587 100.995 77.3707 100.995 85.9211C100.995 95.127 93.7555 100.162 84.073 100.162C74.5394 100.222 68.4021 95.6931 65.4229 89.7644Z" fill="#171717"/>
</svg>
