<svg width="110" height="109" viewBox="0 0 110 109" fill="none" xmlns="http://www.w3.org/2000/svg">
<path d="M109.427 0H0.686523V108.74H109.427V0Z" fill="#F7DF1E"/>
<path d="M29.2871 90.8651L37.599 85.8302C39.2078 88.6903 40.6676 91.0736 44.1532 91.0736C47.5197 91.0736 49.6349 89.7628 49.6349 84.6386V49.9312H59.8535V84.8173C59.8535 95.3934 53.6568 100.22 44.6001 100.22C36.4371 100.22 31.7002 95.9892 29.2871 90.8651Z" fill="black"/>
<path d="M65.4238 89.7624L73.7357 84.9361C75.9403 88.5112 78.7705 91.1328 83.8054 91.1328C88.0358 91.1328 90.7468 89.0176 90.7468 86.098C90.7468 82.5826 87.9762 81.3611 83.2989 79.3055L80.7368 78.2032C73.3782 75.0751 68.4626 71.1128 68.4626 62.8008C68.4626 55.1444 74.3018 49.3052 83.4181 49.3052C89.9127 49.3052 94.59 51.5693 97.9565 57.4681L90.002 62.5625C88.2443 59.4344 86.3674 58.1831 83.4479 58.1831C80.4687 58.1831 78.562 60.0898 78.562 62.5625C78.562 65.6311 80.4687 66.8823 84.8481 68.7592L87.4102 69.8615C96.1094 73.5855 100.995 77.369 100.995 85.9193C100.995 95.1249 93.7558 100.16 84.0735 100.16C74.5401 100.219 68.403 95.691 65.4238 89.7624Z" fill="black"/>
</svg>
