<svg width="50" height="109" viewBox="0 0 50 109" fill="none" xmlns="http://www.w3.org/2000/svg">
<g clip-path="url(#clip0_204_1246)">
<path d="M24.4214 0.668945L27.313 6.09997C27.9631 7.10221 28.6673 7.98932 29.4969 8.81549C31.929 11.2172 34.1959 13.7806 36.2823 16.488C41.1817 22.9213 44.4864 30.0656 46.8464 37.7923C48.2617 42.5122 49.0303 47.3541 49.0879 52.2502C49.3249 66.8876 44.3069 79.4561 34.1898 89.9017C32.5441 91.5582 30.7663 93.0778 28.8739 94.4456C27.8717 94.4456 27.3976 93.677 26.9845 92.9694C26.2323 91.6571 25.7316 90.216 25.5083 88.72C25.1528 86.9492 24.9191 85.1783 25.0342 83.3499V82.5238C24.953 82.3477 24.0693 1.08541 24.4214 0.668945Z" fill="#F7F7F7"/>
<path d="M24.4192 0.489533C24.3007 0.252518 24.1822 0.431972 24.0637 0.547094C24.1212 1.73217 23.7081 2.78858 23.0614 3.79759C22.3504 4.79982 21.4091 5.56843 20.4644 6.39459C15.2162 10.9385 11.0854 16.4271 7.77735 22.5658C3.37564 30.8274 1.10707 39.6817 0.463742 49.0031C0.169167 52.3653 1.52692 64.2296 2.58672 67.6528C5.4783 76.7406 10.6723 84.3556 17.4002 90.9649C19.0525 92.5563 20.8199 94.0326 22.6483 95.4513C23.1799 95.4513 23.2375 94.9772 23.3594 94.6251C23.5925 93.8716 23.7701 93.1021 23.891 92.3227L25.0761 83.4719L24.4192 0.489533Z" fill="#F7F7F7"/>
<path d="M27.3128 98.0418C27.4313 96.6874 28.0814 95.5633 28.7891 94.4425C28.078 94.148 27.5498 93.5622 27.1367 92.9087C26.7806 92.29 26.4857 91.6379 26.2564 90.9618C25.4302 88.4833 25.2542 85.8829 25.0172 83.3502V81.8164C24.7226 82.0534 24.6616 84.0579 24.6616 84.3559C24.4893 87.0327 24.1341 89.6946 23.5984 92.3229C23.4224 93.3861 23.3039 94.4459 22.6504 95.3906C22.6504 95.5091 22.6504 95.6276 22.708 95.8037C23.7711 98.9323 24.0623 102.118 24.2418 105.366V106.551C24.2418 107.966 24.1842 107.668 25.3591 108.142C25.8332 108.318 26.3614 108.379 26.8354 108.731C27.1909 108.731 27.2485 108.437 27.2485 108.2L27.0724 106.253V100.822C27.0149 99.8736 27.1909 98.9323 27.3094 98.0452L27.3128 98.0418Z" fill="#767676"/>
</g>
<defs>
<clipPath id="clip0_204_1246">
<rect width="49.3678" height="108.743" fill="white"/>
</clipPath>
</defs>
</svg>
