<svg width="50" height="109" viewBox="0 0 50 109" fill="none" xmlns="http://www.w3.org/2000/svg">
<g clip-path="url(#clip0_204_1217)">
<path d="M24.4204 0.668457L27.3119 6.09935C27.962 7.10156 28.6663 7.98866 29.4958 8.8148C31.9278 11.2165 34.1947 13.7798 36.281 16.4871C41.1804 22.9202 44.4849 30.0644 46.8449 37.7909C48.2602 42.5107 49.0287 47.3525 49.0863 52.2484C49.3233 66.8855 44.3055 79.4537 34.1886 89.899C32.543 91.5555 30.7652 93.0751 28.8728 94.4429C27.8706 94.4429 27.3966 93.6743 26.9835 92.9666C26.2313 91.6544 25.7306 90.2133 25.5073 88.7174C25.1518 86.9466 24.9181 85.1758 25.0333 83.3474V82.5213C24.952 82.3452 24.0683 1.08492 24.4204 0.668457Z" fill="#599636"/>
<path d="M24.4206 0.489042C24.3021 0.252033 24.1835 0.431482 24.065 0.546601C24.1226 1.73165 23.7095 2.78803 23.0628 3.79701C22.3518 4.79922 21.4105 5.56781 20.4659 6.39396C15.2178 10.9378 11.0871 16.4262 7.77912 22.5648C3.37752 30.8262 1.10901 39.6802 0.465695 49.0014C0.171126 52.3636 1.52885 64.2276 2.58862 67.6507C5.48013 76.7383 10.674 84.3531 17.4017 90.9622C19.054 92.5536 20.8214 94.0298 22.6498 95.4485C23.1813 95.4485 23.2389 94.9745 23.3608 94.6223C23.5938 93.8689 23.7715 93.0993 23.8924 92.32L25.0774 83.4694L24.4206 0.489042Z" fill="#6CAC48"/>
<path d="M27.3127 98.0389C27.4312 96.6846 28.0813 95.5605 28.7889 94.4398C28.0779 94.1452 27.5497 93.5595 27.1366 92.906C26.7805 92.2873 26.4856 91.6352 26.2563 90.9591C25.4302 88.4807 25.2541 85.8804 25.0171 83.3478V81.814C24.7225 82.051 24.6616 84.0554 24.6616 84.3533C24.4893 87.0301 24.1341 89.692 23.5984 92.3202C23.4224 93.3834 23.3039 94.4432 22.6504 95.3878C22.6504 95.5063 22.6504 95.6248 22.708 95.8009C23.7711 98.9294 24.0623 102.115 24.2417 105.363V106.548C24.2417 107.963 24.1842 107.665 25.3591 108.139C25.8331 108.315 26.3613 108.376 26.8353 108.728C27.1908 108.728 27.2484 108.433 27.2484 108.196L27.0723 106.25V100.819C27.0147 99.8707 27.1908 98.9294 27.3093 98.0423L27.3127 98.0389Z" fill="#C2BFBF"/>
</g>
<defs>
<clipPath id="clip0_204_1217">
<rect width="49.3666" height="108.74" fill="white"/>
</clipPath>
</defs>
</svg>
