<svg width="92" height="104" viewBox="0 0 92 104" fill="none" xmlns="http://www.w3.org/2000/svg">
    <path
        d="M45.896 0.266113C44.5296 0.266113 43.1125 0.620386 41.9484 1.27832L4.29429 23.0408C1.86499 24.4579 0.34668 27.0896 0.34668 29.9238V73.3475C0.34668 76.1817 1.86499 78.8135 4.29429 80.2306L14.1633 85.8989C18.9713 88.227 20.5908 88.2776 22.8177 88.2776C29.9032 88.2776 34.0026 83.9757 34.0026 76.4854V33.6184C34.0026 33.011 33.4965 32.5049 32.8892 32.5049H28.1824C27.5245 32.5049 27.0184 33.011 27.0184 33.6184V76.4854C27.0184 79.8257 23.5769 83.1154 18.0603 80.3318L7.68519 74.4104C7.33092 74.1573 7.12847 73.7524 7.12847 73.3475V29.9238C7.12847 29.4683 7.33092 29.0634 7.68519 28.861L45.3393 7.14913C45.643 6.94669 46.1491 6.94669 46.4528 7.14913L84.1069 28.861C84.4612 29.0634 84.6636 29.4683 84.6636 29.9238V73.3475C84.6636 73.7524 84.4612 74.1573 84.1069 74.4104L46.4528 96.1222C46.1491 96.3247 45.643 96.3247 45.2887 96.1222L35.774 90.3526C35.3691 90.2008 34.9642 90.1502 34.7111 90.302C32.0288 91.8203 31.5227 92.124 29.0428 92.8832C28.4355 93.0856 27.4739 93.4399 29.3971 94.5027L41.9484 101.942C43.1631 102.651 44.479 103.005 45.896 103.005C47.3131 103.005 48.629 102.651 49.8437 101.942L87.4978 80.2306C89.9271 78.8135 91.4454 76.1817 91.4454 73.3475V29.9238C91.4454 27.0896 89.9271 24.4579 87.4978 23.0408L49.8437 1.27832C48.6796 0.620386 47.3131 0.266113 45.896 0.266113ZM56.0181 31.3915C45.2887 31.3915 38.8612 35.8958 38.8612 43.4874C38.8612 51.6357 45.2381 54.0144 55.5626 55.0266C67.861 56.2412 68.8226 58.0632 68.8226 60.4925C68.8226 64.6932 65.4317 66.4645 57.5364 66.4645C47.5156 66.4645 45.3899 63.9846 44.6308 59.0248C44.5296 58.5187 44.0741 58.1138 43.5174 58.1138H38.6588C38.0514 58.1138 37.5959 58.5693 37.5959 59.2272C37.5959 65.5029 41.0374 73.0945 57.5364 73.0945C69.4299 73.0945 76.2623 68.3877 76.2623 60.1888C76.2623 52.0406 70.7964 49.9149 59.2066 48.346C47.5156 46.8277 46.3515 46.0179 46.3515 43.285C46.3515 41.0075 47.3637 37.9709 56.0181 37.9709C63.6097 37.9709 66.5957 39.641 67.7597 44.8539C67.861 45.36 68.3165 45.7143 68.8226 45.7143H73.7318C73.9848 45.7143 74.2885 45.613 74.4909 45.36C74.6934 45.1575 74.8452 44.8539 74.744 44.5502C74.0354 35.5416 68.0634 31.3915 56.0181 31.3915Z"
        fill="#F7F7F7"
    />
</svg>
