<svg width="92" height="104" viewBox="0 0 92 104" fill="none" xmlns="http://www.w3.org/2000/svg">
<path d="M45.8959 0.265625C44.5295 0.265625 43.1124 0.619889 41.9484 1.27781L4.29517 23.0398C1.86593 24.4568 0.347656 27.0885 0.347656 29.9226V73.3453C0.347656 76.1794 1.86593 78.8111 4.29517 80.2281L14.164 85.8964C18.9718 88.2244 20.5913 88.275 22.8181 88.275C29.9034 88.275 34.0028 83.9732 34.0028 76.4831V33.6171C34.0028 33.0098 33.4967 32.5037 32.8894 32.5037H28.1827C27.5248 32.5037 27.0187 33.0098 27.0187 33.6171V76.4831C27.0187 79.8233 23.5773 83.1129 18.0609 80.3294L7.68599 74.4081C7.33172 74.155 7.12929 73.7502 7.12929 73.3453V29.9226C7.12929 29.4671 7.33172 29.0623 7.68599 28.8598L45.3392 7.14847C45.6429 6.94604 46.149 6.94604 46.4526 7.14847L84.1059 28.8598C84.4601 29.0623 84.6626 29.4671 84.6626 29.9226V73.3453C84.6626 73.7502 84.4601 74.155 84.1059 74.4081L46.4526 96.1194C46.149 96.3219 45.6429 96.3219 45.2886 96.1194L35.7741 90.35C35.3692 90.1982 34.9643 90.1475 34.7113 90.2994C32.029 91.8176 31.5229 92.1213 29.0431 92.8804C28.4358 93.0829 27.4742 93.4371 29.3973 94.4999L41.9484 101.939C43.163 102.648 44.4789 103.002 45.8959 103.002C47.313 103.002 48.6288 102.648 49.8434 101.939L87.4967 80.2281C89.9259 78.8111 91.4442 76.1794 91.4442 73.3453V29.9226C91.4442 27.0885 89.9259 24.4568 87.4967 23.0398L49.8434 1.27781C48.6794 0.619889 47.313 0.265625 45.8959 0.265625ZM56.0178 31.3903C45.2886 31.3903 38.8612 35.8945 38.8612 43.4859C38.8612 51.6339 45.238 54.0126 55.5623 55.0248C67.8603 56.2394 68.8219 58.0613 68.8219 60.4906C68.8219 64.6911 65.4311 66.4624 57.536 66.4624C47.5154 66.4624 45.3898 63.9826 44.6307 59.0229C44.5295 58.5168 44.074 58.1119 43.5173 58.1119H38.6588C38.0515 58.1119 37.596 58.5674 37.596 59.2253C37.596 65.5009 41.0374 73.0922 57.536 73.0922C69.4292 73.0922 76.2614 68.3856 76.2614 60.1869C76.2614 52.0388 70.7956 49.9132 59.2061 48.3443C47.5154 46.8261 46.3514 46.0163 46.3514 43.2834C46.3514 41.006 47.3636 37.9695 56.0178 37.9695C63.6091 37.9695 66.5951 39.6396 67.7591 44.8523C67.8603 45.3584 68.3158 45.7127 68.8219 45.7127H73.731C73.984 45.7127 74.2877 45.6115 74.4901 45.3584C74.6925 45.156 74.8444 44.8523 74.7432 44.5487C74.0346 35.5402 68.0627 31.3903 56.0178 31.3903Z" fill="#8BC34A"/>
</svg>
