<svg width="123" height="109" viewBox="0 0 123 109" fill="none" xmlns="http://www.w3.org/2000/svg">
<path d="M100.388 35.2105C99.1216 34.7746 97.8092 34.3621 96.4578 33.972C96.6799 33.0655 96.8838 32.1707 97.065 31.2912C100.04 16.8489 98.095 5.21406 91.4522 1.38339C85.0827 -2.28972 74.6658 1.54008 64.1452 10.6958C63.1336 11.5762 62.1191 12.5083 61.105 13.4852C60.4293 12.8389 59.7547 12.2143 59.0819 11.6169C48.056 1.82696 37.0043 -2.29863 30.3681 1.54313C24.0046 5.22689 22.1202 16.1647 24.7983 29.8518C25.057 31.1738 25.3593 32.5239 25.7011 33.8965C24.137 34.3405 22.627 34.8139 21.1822 35.3175C8.25553 39.8242 0 46.8875 0 54.2139C0 61.7808 8.86232 69.3704 22.3264 73.9724C23.3889 74.3355 24.4915 74.6789 25.6277 75.0049C25.2589 76.4895 24.9381 77.9443 24.6688 79.3633C22.1152 92.8128 24.1094 103.492 30.4559 107.153C37.0112 110.933 48.013 107.047 58.7259 97.683C59.5726 96.9427 60.4224 96.1577 61.2736 95.3349C62.377 96.3975 63.4787 97.403 64.5745 98.3463C74.9512 107.276 85.1998 110.881 91.5405 107.211C98.0893 103.42 100.218 91.9474 97.4545 77.9895C97.2434 76.9235 96.9979 75.8345 96.7221 74.7261C97.4947 74.4977 98.2532 74.2619 98.9927 74.0167C112.99 69.3791 122.097 61.8818 122.097 54.2139C122.097 46.861 113.575 39.7501 100.388 35.2105ZM97.3523 69.0657C96.6847 69.2867 95.9997 69.5004 95.3016 69.7075C93.7564 64.8156 91.6709 59.6138 89.1188 54.2394C91.5542 48.993 93.559 43.8577 95.061 38.9975C96.31 39.3589 97.5223 39.7401 98.6904 40.1424C109.989 44.032 116.881 49.7828 116.881 54.2139C116.881 58.9339 109.438 65.0612 97.3523 69.0657ZM92.3376 79.0025C93.5595 85.1745 93.734 90.7547 92.9246 95.117C92.1975 99.0367 90.735 101.65 88.9268 102.697C85.079 104.924 76.8504 102.029 67.9761 94.3924C66.9588 93.517 65.9341 92.5822 64.9061 91.5929C68.3465 87.8303 71.7849 83.456 75.1407 78.5981C81.0432 78.0743 86.6197 77.218 91.6767 76.049C91.9258 77.0537 92.147 78.0391 92.3376 79.0025ZM41.6256 102.312C37.8662 103.64 34.8721 103.678 33.0621 102.634C29.2108 100.413 27.6097 91.8381 29.7937 80.336C30.0438 79.0188 30.3416 77.6657 30.6847 76.2826C35.6864 77.3886 41.222 78.1845 47.1387 78.6641C50.5171 83.4178 54.0548 87.7872 57.6199 91.6131C56.841 92.3651 56.0651 93.081 55.2936 93.7556C50.5564 97.8964 45.8092 100.834 41.6256 102.312ZM24.0133 69.0368C18.0598 67.0019 13.1431 64.3572 9.77294 61.4713C6.74465 58.8779 5.21573 56.3032 5.21573 54.2139C5.21573 49.768 11.8441 44.0972 22.8991 40.2428C24.2404 39.7751 25.6446 39.3344 27.1018 38.9204C28.6297 43.8903 30.6339 49.0865 33.0526 54.3409C30.6026 59.6733 28.5699 64.9523 27.0271 69.9804C25.9882 69.6818 24.9818 69.3676 24.0133 69.0368ZM29.9171 28.8501C27.6226 17.1234 29.1465 8.27713 32.9813 6.05731C37.066 3.69253 46.0985 7.0642 55.6185 15.5173C56.227 16.0576 56.8379 16.6231 57.4506 17.2081C53.9031 21.0173 50.3978 25.3539 47.0493 30.0796C41.307 30.6118 35.8103 31.4668 30.7565 32.6117C30.4387 31.3336 30.1573 30.0778 29.9171 28.8501ZM82.5843 41.855C81.3761 39.7682 80.1358 37.7307 78.8714 35.7489C82.767 36.2413 86.4995 36.8951 90.0046 37.695C88.9523 41.0676 87.6407 44.5938 86.0968 48.2087C84.9892 46.106 83.8178 43.9859 82.5843 41.855ZM61.1067 20.9358C63.5126 23.5422 65.9219 26.4523 68.2917 29.6097C65.9037 29.4969 63.4861 29.4382 61.0485 29.4382C58.6339 29.4382 56.2342 29.4956 53.8609 29.6064C56.2331 26.4784 58.6633 23.5722 61.1067 20.9358ZM39.4916 41.8911C38.2848 43.9837 37.1351 46.0923 36.045 48.2047C34.5261 44.6025 33.2266 41.0602 32.1652 37.6399C35.6488 36.8603 39.3636 36.2229 43.2345 35.7397C41.9523 37.7398 40.7017 39.7927 39.4916 41.8911ZM43.346 73.0602C39.3467 72.6141 35.576 72.0094 32.0933 71.2514C33.1717 67.77 34.4998 64.1521 36.0509 60.4722C37.1438 62.5831 38.2981 64.6926 39.5123 66.7898C40.7491 68.9264 42.0307 71.0193 43.346 73.0602ZM61.251 87.8598C58.7789 85.1925 56.3131 82.242 53.9048 79.0684C56.2427 79.1601 58.6261 79.207 61.0485 79.207C63.5371 79.207 65.9973 79.1509 68.4188 79.0431C66.0412 82.274 63.6406 85.229 61.251 87.8598ZM86.1465 60.2847C87.7785 64.0043 89.1542 67.6033 90.2465 71.0254C86.7064 71.833 82.8842 72.4834 78.857 72.9668C80.1245 70.9582 81.3757 68.8857 82.6051 66.7539C83.8489 64.5972 85.0299 62.4371 86.1465 60.2847ZM78.087 64.1481C76.1784 67.4574 74.219 70.6166 72.2297 73.5986C68.6066 73.8576 64.8635 73.9911 61.0485 73.9911C57.2489 73.9911 53.553 73.8731 49.994 73.642C47.9245 70.6209 45.9225 67.4525 44.026 64.1766C42.1346 60.9097 40.3942 57.6152 38.8168 54.3391C40.3938 51.0555 42.13 47.7573 44.0106 44.4962L44.0102 44.4969C45.8957 41.2271 47.8802 38.0741 49.9305 35.0719C53.5617 34.7974 57.2852 34.6542 61.0483 34.6542C64.8283 34.6542 68.5568 34.7985 72.1869 35.0753C74.2059 38.0556 76.1769 41.1984 78.0699 44.4686C79.9843 47.7755 81.743 51.0518 83.3334 54.265C81.7477 57.5335 79.993 60.8428 78.087 64.1481ZM88.8469 5.90213C92.9355 8.25996 94.5255 17.7691 91.9566 30.2384C91.7928 31.0341 91.6083 31.8445 91.4079 32.6658C86.3423 31.497 80.8417 30.6272 75.0826 30.0869C71.7277 25.3094 68.2511 20.966 64.7614 17.2057C65.6996 16.3032 66.6365 15.4425 67.5695 14.6304C76.5835 6.7858 85.0084 3.68862 88.8469 5.90213ZM61.0485 43.3111C67.0699 43.3111 71.9513 48.1924 71.9513 54.2139C71.9513 60.2353 67.0699 65.1168 61.0485 65.1168C55.0271 65.1168 50.1456 60.2353 50.1456 54.2139C50.1456 48.1924 55.0271 43.3111 61.0485 43.3111Z" fill="#F7F7F7"/>
</svg>
