<svg width="123" height="109" viewBox="0 0 123 109" fill="none" xmlns="http://www.w3.org/2000/svg">
<path d="M100.386 35.2087C99.1192 34.7727 97.8068 34.3603 96.4555 33.9702C96.6776 33.0637 96.8814 32.169 97.0627 31.2894C100.038 16.8475 98.0926 5.21296 91.45 1.38238C85.0806 -2.29064 74.664 1.53907 64.1437 10.6946C63.132 11.575 62.1176 12.5071 61.1035 13.4839C60.4279 12.8376 59.7533 12.213 59.0804 11.6156C48.0549 1.82594 37.0034 -2.29956 30.3674 1.54211C24.0041 5.22578 22.1196 16.1634 24.7977 29.8501C25.0564 31.1721 25.3587 32.5221 25.7005 33.8947C24.1364 34.3387 22.6264 34.8121 21.1817 35.3156C8.25533 39.8223 0 46.8854 0 54.2117C0 61.7783 8.86211 69.3677 22.3259 73.9696C23.3884 74.3328 24.4909 74.6761 25.6271 75.0021C25.2582 76.4867 24.9375 77.9415 24.6682 79.3604C22.1146 92.8096 24.1088 103.489 30.4552 107.149C37.0104 110.929 48.0118 107.044 58.7245 97.6796C59.5712 96.9394 60.4209 96.1544 61.2722 95.3316C62.3755 96.3941 63.4772 97.3997 64.5729 98.3429C74.9493 107.272 85.1978 110.878 91.5382 107.207C98.0869 103.416 100.215 91.9442 97.4521 77.9867C97.2411 76.9207 96.9955 75.8316 96.7197 74.7233C97.4923 74.4949 98.2508 74.2591 98.9903 74.0139C112.987 69.3764 122.094 61.8793 122.094 54.2117C122.094 46.8589 113.572 39.7482 100.386 35.2087ZM97.35 69.063C96.6824 69.2841 95.9973 69.4977 95.2993 69.7048C93.7541 64.813 91.6686 59.6113 89.1166 54.2371C91.5519 48.9908 93.5568 43.8557 95.0587 38.9956C96.3077 39.357 97.5199 39.7382 98.688 40.1405C109.986 44.0299 116.878 49.7806 116.878 54.2117C116.878 58.9315 109.435 65.0586 97.35 69.063ZM92.3354 78.9996C93.5572 85.1714 93.7317 90.7515 92.9224 95.1137C92.1952 99.0334 90.7328 101.647 88.9247 102.693C85.0769 104.92 76.8486 102.025 67.9745 94.3891C66.9572 93.5137 65.9325 92.579 64.9045 91.5897C68.3448 87.8272 71.7831 83.453 75.1389 78.5952C81.0412 78.0714 86.6176 77.2151 91.6745 76.0462C91.9236 77.0508 92.1448 78.0362 92.3354 78.9996ZM41.6246 102.308C37.8653 103.636 34.8712 103.674 33.0613 102.631C29.2101 100.409 27.6091 91.8349 29.793 80.3331C30.0431 79.0159 30.3408 77.6628 30.684 76.2798C35.6855 77.3857 41.221 78.1816 47.1375 78.6612C50.5158 83.4148 54.0535 87.7841 57.6185 91.6099C56.8396 92.3619 56.0637 93.0778 55.2922 93.7523C50.5552 97.893 45.8081 100.831 41.6246 102.308ZM24.0128 69.0341C18.0593 66.9993 13.1428 64.3547 9.7727 61.4688C6.74449 58.8755 5.2156 56.3008 5.2156 54.2117C5.2156 49.7658 11.8438 44.0951 22.8985 40.2409C24.2399 39.7732 25.644 39.3325 27.1012 38.9184C28.629 43.8882 30.6332 49.0843 33.0518 54.3386C30.6019 59.6709 28.5692 64.9497 27.0264 69.9778C25.9876 69.6792 24.9812 69.3649 24.0128 69.0341ZM29.9164 28.8484C27.6219 17.122 29.1458 8.27595 32.9805 6.05618C37.0651 3.69146 46.0974 7.06306 55.6171 15.5159C56.2256 16.0562 56.8365 16.6217 57.4492 17.2067C53.9018 21.0158 50.3965 25.3523 47.0482 30.0779C41.306 30.6101 35.8094 31.465 30.7557 32.6099C30.438 31.3318 30.1566 30.0761 29.9164 28.8484ZM82.5823 41.853C81.3741 39.7662 80.1339 37.7288 78.8695 35.747C82.765 36.2395 86.4974 36.8932 90.0024 37.6932C88.9501 41.0656 87.6386 44.5917 86.0947 48.2065C84.9872 46.1039 83.8158 43.9839 82.5823 41.853ZM61.1053 20.9343C63.5111 23.5407 65.9203 26.4507 68.29 29.608C65.9021 29.4952 63.4845 29.4365 61.047 29.4365C58.6325 29.4365 56.2328 29.4939 53.8596 29.6047C56.2317 26.4768 58.6619 23.5707 61.1053 20.9343ZM39.4907 41.8891C38.2839 43.9817 37.1342 46.0902 36.0441 48.2026C34.5252 44.6004 33.2258 41.0582 32.1644 37.638C35.6479 36.8584 39.3627 36.221 43.2335 35.7379C41.9513 37.7379 40.7008 39.7908 39.4907 41.8891ZM43.345 73.0575C39.3457 72.6113 35.5751 72.0067 32.0925 71.2487C33.1709 67.7673 34.4989 64.1495 36.05 60.4698C37.1429 62.5807 38.2971 64.69 39.5113 66.7872C40.7481 68.9237 42.0297 71.0166 43.345 73.0575ZM61.2496 87.8567C58.7775 85.1895 56.3117 82.2391 53.9035 79.0655C56.2413 79.1572 58.6247 79.2041 61.047 79.2041C63.5356 79.2041 65.9957 79.148 68.4172 79.0403C66.0396 82.271 63.6391 85.226 61.2496 87.8567ZM86.1444 60.2822C87.7763 64.0017 89.152 67.6007 90.2443 71.0227C86.7043 71.8303 82.8822 72.4807 78.8551 72.964C80.1226 70.9555 81.3737 68.8831 82.6031 66.7514C83.8469 64.5946 85.0278 62.4346 86.1444 60.2822ZM78.0851 64.1456C76.1766 67.4548 74.2172 70.6139 72.228 73.5958C68.6049 73.8549 64.862 73.9883 61.047 73.9883C57.2475 73.9883 53.5517 73.8703 49.9927 73.6393C47.9234 70.6182 45.9214 67.4498 44.025 64.1741C42.1336 60.9072 40.3932 57.6128 38.8159 54.3368C40.3928 51.0533 42.129 47.7551 44.0095 44.4942L44.0091 44.4948C45.8946 41.2251 47.879 38.0722 49.9293 35.07C53.5604 34.7956 57.2838 34.6523 61.0468 34.6523C64.8267 34.6523 68.5552 34.7966 72.1852 35.0735C74.2041 38.0537 76.1751 41.1964 78.068 44.4666C79.9824 47.7734 81.741 51.0496 83.3314 54.2627C81.7458 57.5311 79.9911 60.8403 78.0851 64.1456ZM88.8447 5.90101C92.9333 8.25878 94.5232 17.7677 91.9544 30.2367C91.7906 31.0323 91.6061 31.8428 91.4057 32.664C86.3403 31.4952 80.8397 30.6255 75.0808 30.0852C71.726 25.3078 68.2494 20.9645 64.7598 17.2043C65.698 16.3018 66.6349 15.4412 67.5679 14.629C76.5817 6.78466 85.0063 3.68755 88.8447 5.90101ZM61.047 43.3091C67.0682 43.3091 71.9496 48.1902 71.9496 54.2117C71.9496 60.2329 67.0682 65.1142 61.047 65.1142C55.0258 65.1142 50.1444 60.2329 50.1444 54.2117C50.1444 48.1902 55.0258 43.3091 61.047 43.3091Z" fill="#257BC2"/>
</svg>
