<svg width="91" height="109" viewBox="0 0 91 109" fill="none" xmlns="http://www.w3.org/2000/svg">
<path d="M81.2374 17.8497C72.0092 4.64904 53.7816 0.736259 40.6042 9.12885L17.4624 23.8731C15.9055 24.8513 14.4532 25.9886 13.1318 27.2669C11.8087 28.5452 10.6233 29.9578 9.5937 31.4814C8.56411 33.0051 7.69534 34.6316 7.00065 36.3343C6.30766 38.0378 5.79315 39.8086 5.46538 41.6182C5.19182 43.1352 5.0426 44.6738 5.02271 46.2157C5.00116 47.7593 5.10892 49.3012 5.34269 50.8248C5.57647 52.3502 5.93624 53.8539 6.41705 55.3196C6.89786 56.7852 7.4997 58.2077 8.21594 59.5739C7.72322 60.3227 7.26836 61.0957 6.85309 61.8901C6.43695 62.6842 6.06225 63.4999 5.729 64.3322C5.39575 65.1645 5.10561 66.0134 4.85857 66.8755C4.61153 67.7377 4.40926 68.6114 4.2501 69.4935C3.58874 73.2026 3.67612 77.0065 4.50708 80.6814C4.92157 82.5134 5.51678 84.3007 6.28607 86.015C7.05537 87.7293 7.99211 89.3641 9.08637 90.8927C18.3146 104.093 36.5405 108.006 49.718 99.6136L72.8597 84.9307C74.4166 83.9509 75.8656 82.8118 77.187 81.5319C78.5082 80.253 79.6933 78.8406 80.7234 77.3174C81.753 75.7954 82.6218 74.1689 83.3165 72.4662C84.0112 70.7651 84.5268 68.9944 84.8567 67.1856C85.1303 65.6686 85.2779 64.1316 85.2978 62.5897C85.3176 61.0478 85.2099 59.5059 84.9744 57.9823C84.7407 56.4586 84.3809 54.9565 83.8984 53.4908C83.416 52.0269 82.8141 50.6043 82.0979 49.2382C82.5903 48.4904 83.0462 47.7162 83.4624 46.922C83.8769 46.1278 84.2532 45.3121 84.5865 44.4798C84.9197 43.6475 85.2115 42.7987 85.4602 41.9365C85.7073 41.076 85.9128 40.2023 86.0737 39.3203C86.4019 37.47 86.5445 35.5915 86.5014 33.7131C86.4583 31.8346 86.2279 29.9661 85.8134 28.1324C85.3989 26.3003 84.8037 24.513 84.0344 22.7987C83.2661 21.0841 82.3291 19.4502 81.2374 17.921" fill="#F7F7F7"/>
<path d="M38.3446 92.1695C36.5334 92.64 34.661 92.8312 32.7921 92.7365C30.9235 92.6403 29.0799 92.2623 27.3258 91.6107C25.5716 90.9602 23.9268 90.0461 22.4481 88.9C20.9705 87.7531 19.6763 86.3878 18.6099 84.8512C17.9517 83.9311 17.388 82.9496 16.9271 81.9183C16.4648 80.8877 16.1066 79.8136 15.8577 78.7118C15.6106 77.6093 15.4714 76.4852 15.4465 75.3561C15.4216 74.227 15.5095 73.098 15.7085 71.9855C15.74 71.8048 15.7764 71.624 15.8162 71.445C15.8544 71.2643 15.8975 71.0852 15.9439 70.9078C15.9887 70.7288 16.0384 70.5513 16.0914 70.3739C16.1428 70.1982 16.1992 70.0225 16.2572 69.8484L16.6933 68.517L17.882 69.404C18.5635 69.9014 19.2664 70.3706 19.9876 70.8083C20.7089 71.2477 21.4483 71.6555 22.2043 72.0302C22.9587 72.4066 23.7313 72.7515 24.5155 73.0615C25.2997 73.3732 26.0972 73.6501 26.9063 73.8938L27.7933 74.1508L27.7137 75.0378C27.671 75.6415 27.7338 76.248 27.8994 76.83C27.9807 77.1218 28.0884 77.4037 28.2194 77.6756C28.3504 77.9475 28.5046 78.2078 28.6803 78.4532C29.0023 78.916 29.3931 79.3269 29.8392 79.6718C30.2836 80.0166 30.7793 80.2919 31.3082 80.4875C31.8371 80.6831 32.3908 80.7959 32.9545 80.8241C33.5166 80.8539 34.0803 80.7959 34.6258 80.6533C34.7518 80.6201 34.8745 80.582 34.9971 80.5389C35.1198 80.4958 35.2409 80.4494 35.3586 80.3963C35.478 80.3449 35.594 80.2885 35.7101 80.2272C35.8245 80.1675 35.9355 80.1028 36.045 80.0332L59.1519 65.2873C59.4352 65.1097 59.6992 64.903 59.9395 64.6706C60.1799 64.4368 60.3938 64.1798 60.5811 63.9029C60.7685 63.6261 60.9243 63.3293 61.0503 63.0192C61.1746 62.7092 61.2675 62.3876 61.3272 62.0593C61.3852 61.7227 61.4101 61.3828 61.4018 61.0413C61.3935 60.7014 61.3504 60.3632 61.2741 60.0299C61.1995 59.6983 61.0901 59.375 60.9492 59.0634C60.8099 58.7533 60.6375 58.4582 60.4385 58.1813C60.1169 57.7188 59.7273 57.3092 59.2813 56.9644C58.8353 56.6195 58.3395 56.3443 57.8123 56.1487C57.2839 55.953 56.7287 55.8389 56.166 55.8104C55.6023 55.7823 55.0385 55.8403 54.4931 55.9812C54.3687 56.0144 54.2444 56.0525 54.1217 56.0956C53.999 56.1387 53.8796 56.1851 53.7603 56.2365C53.6409 56.2896 53.5248 56.346 53.4104 56.4073C53.296 56.467 53.1833 56.5333 53.0739 56.6029L44.2005 62.2367C43.839 62.4655 43.4677 62.681 43.0896 62.8833C42.71 63.0839 42.3253 63.2713 41.9324 63.4437C41.5394 63.6161 41.1399 63.7736 40.7353 63.9145C40.3308 64.0571 39.9213 64.1831 39.5068 64.2942C37.698 64.7618 35.8294 64.9508 33.9642 64.8546C32.099 64.7584 30.2604 64.3788 28.5096 63.7305C26.7587 63.0806 25.1174 62.1671 23.6418 61.0231C22.1662 59.8791 20.873 58.5179 19.8069 56.9843C19.152 56.0641 18.59 55.0809 18.1307 54.0497C17.6698 53.0184 17.3134 51.9441 17.0663 50.8432C16.8193 49.7407 16.6833 48.6166 16.6601 47.4875C16.6353 46.3601 16.7231 45.231 16.9237 44.1202C17.3157 41.9331 18.1593 39.8517 19.4007 38.0089C20.643 36.1661 22.2563 34.603 24.1375 33.4197L47.3158 18.6755C47.6756 18.4467 48.0436 18.2311 48.42 18.0289C48.7963 17.8283 49.181 17.6409 49.5706 17.4685C49.9611 17.296 50.3582 17.1389 50.761 16.9976C51.1622 16.855 51.5701 16.7274 51.9829 16.6163C53.7934 16.1471 55.6653 15.9548 57.5321 16.0493C59.4006 16.1454 61.2426 16.5235 62.9967 17.175C64.7509 17.8249 66.3939 18.7401 67.8728 19.8858C69.3498 21.0333 70.6435 22.3991 71.7093 23.9362C72.3659 24.8547 72.9312 25.8362 73.3938 26.8675C73.8564 27.8987 74.2145 28.9714 74.4648 30.0739C74.7135 31.1765 74.8528 32.3006 74.8777 33.4297C74.9042 34.5587 74.818 35.6878 74.619 36.8003C74.5842 36.9827 74.5477 37.165 74.5063 37.3458C74.4665 37.5265 74.4234 37.7072 74.377 37.8862C74.3322 38.067 74.2825 38.246 74.2311 38.4234C74.1797 38.6025 74.1266 38.7799 74.0686 38.9556L73.6259 40.287L72.4455 39.4C71.7624 38.8976 71.0577 38.4267 70.3349 37.9841C69.612 37.5431 68.8692 37.1319 68.1115 36.7522C66.5946 35.9955 65.0168 35.3677 63.3947 34.8754L62.506 34.6184L62.5872 33.7314C62.6121 33.428 62.6104 33.1229 62.5823 32.8212C62.5557 32.5194 62.501 32.2193 62.4214 31.9259C62.3402 31.6341 62.2357 31.3473 62.1048 31.0737C61.9754 30.7985 61.8213 30.5365 61.6455 30.2878C61.322 29.8334 60.9312 29.4309 60.4866 29.0941C60.0426 28.7558 59.5495 28.4874 59.0243 28.2983C57.969 27.9154 56.8219 27.8639 55.7365 28.1507C55.6105 28.1839 55.4862 28.222 55.3652 28.2635C55.2425 28.3066 55.1214 28.3546 55.0021 28.406C54.8844 28.4574 54.7666 28.5155 54.6522 28.5752C54.5378 28.6365 54.4251 28.7012 54.3157 28.7708L31.1656 43.4902C30.8837 43.6676 30.6201 43.8748 30.3814 44.1069C30.1426 44.339 29.9271 44.596 29.7398 44.8712C29.554 45.1481 29.3968 45.443 29.2706 45.7516C29.1446 46.0616 29.0517 46.3816 28.992 46.7099C28.934 47.0465 28.9091 47.388 28.9174 47.7295C28.9373 48.4132 29.0911 49.0863 29.37 49.7108C29.5107 50.0217 29.6811 50.3182 29.879 50.5962C30.199 51.0538 30.587 51.4616 31.0297 51.8032C31.4714 52.1463 31.9628 52.4202 32.487 52.6156C33.541 53.0074 34.6891 53.0704 35.7797 52.7963C35.904 52.7615 36.0284 52.7233 36.1511 52.6802C36.2721 52.6371 36.3931 52.589 36.5125 52.5376C36.6313 52.486 36.748 52.4295 36.8623 52.3685C36.9767 52.3088 37.0895 52.2442 37.1989 52.1745L46.0723 46.5507C46.4354 46.3186 46.8051 46.0998 47.1848 45.8975C47.5628 45.6936 47.9491 45.5062 48.3437 45.3321C48.737 45.1596 49.1369 45.0026 49.5424 44.8613C49.9486 44.7187 50.3598 44.5927 50.7759 44.4833C52.5864 44.0124 54.4566 43.8201 56.3251 43.9129C58.1936 44.0074 60.0356 44.3854 61.7898 45.0354C63.5422 45.6853 65.1869 46.5988 66.6642 47.7461C68.1431 48.8918 69.4363 50.2563 70.5023 51.7932C71.1589 52.7134 71.7226 53.6949 72.1852 54.7261C72.6477 55.7568 73.0065 56.8309 73.2562 57.9326C73.5049 59.0335 73.6442 60.1576 73.6707 61.2867C73.6972 62.4174 73.6093 63.5465 73.412 64.6573C73.2165 65.748 72.9081 66.8154 72.4919 67.8422C72.0759 68.8694 71.5536 69.8502 70.9334 70.7685C70.315 71.6871 69.6021 72.5392 68.8062 73.3102C68.0104 74.0811 67.1367 74.7675 66.1983 75.3578L43.0465 90.102C42.6834 90.3325 42.3121 90.5496 41.934 90.7519C41.5544 90.9542 41.1681 91.1415 40.7735 91.314C40.3805 91.4881 39.981 91.6456 39.5748 91.7881C39.1702 91.9307 38.7591 92.0584 38.3446 92.1695Z" fill="#171717"/>
</svg>
