<svg width="91" height="109" viewBox="0 0 91 109" fill="none" xmlns="http://www.w3.org/2000/svg">
<path d="M81.2365 17.8494C72.0085 4.64904 53.7814 0.736356 40.6042 9.12874L17.463 23.8726C15.9062 24.8508 14.4539 25.9881 13.1325 27.2664C11.8095 28.5446 10.6241 29.9572 9.59454 31.4808C8.56497 33.0044 7.69622 34.6308 7.00155 36.3335C6.30857 38.037 5.79408 39.8077 5.46632 41.6173C5.19276 43.1343 5.04355 44.6729 5.02366 46.2147C5.0021 47.7582 5.10987 49.3001 5.34363 50.8237C5.5774 52.349 5.93717 53.8527 6.41797 55.3183C6.89876 56.784 7.50059 58.2064 8.21681 59.5726C7.7241 60.3213 7.26926 61.0943 6.854 61.8887C6.43786 62.6828 6.06317 63.4985 5.72993 64.3308C5.39669 65.1631 5.10655 66.0119 4.85952 66.874C4.61249 67.7362 4.41023 68.6099 4.25107 69.4919C3.58973 73.2009 3.6771 77.0048 4.50804 80.6795C4.92252 82.5115 5.51772 84.2988 6.28699 86.0131C7.05626 87.7273 7.99299 89.362 9.08721 90.8906C18.3152 104.091 36.5407 108.004 49.7178 99.6113L72.859 84.9288C74.4158 83.9489 75.8649 82.81 77.1862 81.53C78.5074 80.2511 79.6925 78.8388 80.7226 77.3156C81.7521 75.7936 82.6209 74.1672 83.3155 72.4645C84.0102 70.7635 84.5258 68.9929 84.8557 67.1841C85.1293 65.6671 85.2769 64.1302 85.2968 62.5883C85.3166 61.0465 85.2089 59.5046 84.9735 57.981C84.7397 56.4573 84.3799 54.9553 83.8975 53.4897C83.415 52.0257 82.8132 50.6032 82.097 49.2371C82.5894 48.4894 83.0453 47.7151 83.4614 46.921C83.8759 46.1268 84.2523 45.3112 84.5855 44.4789C84.9187 43.6466 85.2105 42.7977 85.4592 41.9356C85.7063 41.0752 85.9118 40.2014 86.0727 39.3194C86.4009 37.4692 86.5435 35.5908 86.5004 33.7124C86.4573 31.8339 86.2268 29.9655 85.8124 28.1318C85.3979 26.2998 84.8027 24.5126 84.0334 22.7983C83.2651 21.0837 82.3282 19.4498 81.2365 17.9207" fill="#FF3E00"/>
<path d="M38.343 92.1671C36.5319 92.6377 34.6595 92.8289 32.7907 92.7342C30.9222 92.638 29.0786 92.26 27.3245 91.6084C25.5704 90.9579 23.9256 90.0438 22.4469 88.8977C20.9694 87.7509 19.6752 86.3857 18.6088 84.8491C17.9506 83.9289 17.3869 82.9475 16.926 81.9162C16.4638 80.8857 16.1056 79.8115 15.8567 78.7098C15.6097 77.6073 15.4704 76.4832 15.4455 75.3542C15.4207 74.2251 15.5085 73.0961 15.7075 71.9836C15.739 71.8029 15.7754 71.6222 15.8152 71.4432C15.8534 71.2624 15.8965 71.0834 15.9429 70.906C15.9877 70.7269 16.0374 70.5495 16.0905 70.3721C16.1418 70.1964 16.1982 70.0207 16.2562 69.8466L16.6923 68.5153L17.881 69.4023C18.5624 69.8996 19.2654 70.3688 19.9866 70.8065C20.7078 71.2459 21.4472 71.6537 22.2032 72.0284C22.9576 72.4048 23.7301 72.7496 24.5143 73.0596C25.2985 73.3713 26.096 73.6482 26.9051 73.8919L27.792 74.1489L27.7125 75.0359C27.6697 75.6395 27.7325 76.246 27.8981 76.8281C27.9794 77.1199 28.0872 77.4017 28.2181 77.6736C28.3491 77.9455 28.5033 78.2058 28.679 78.4512C29.001 78.914 29.3918 79.3249 29.8379 79.6698C30.2822 80.0146 30.778 80.2898 31.3068 80.4855C31.8357 80.6811 32.3894 80.7938 32.9531 80.822C33.5152 80.8518 34.0789 80.7938 34.6243 80.6512C34.7503 80.6181 34.873 80.5799 34.9957 80.5368C35.1184 80.4937 35.2394 80.4473 35.3571 80.3943C35.4765 80.3429 35.5925 80.2865 35.7086 80.2252C35.823 80.1655 35.9341 80.1008 36.0435 80.0312L59.1499 65.2857C59.4332 65.1081 59.6971 64.9013 59.9374 64.6689C60.1778 64.4351 60.3917 64.1782 60.579 63.9013C60.7664 63.6244 60.9222 63.3276 61.0482 63.0176C61.1726 62.7076 61.2654 62.386 61.3251 62.0577C61.3831 61.7211 61.408 61.3813 61.3997 61.0397C61.3914 60.6998 61.3483 60.3616 61.272 60.0284C61.1974 59.6968 61.088 59.3735 60.9471 59.0618C60.8078 58.7518 60.6354 58.4567 60.4365 58.1798C60.1148 57.7173 59.7252 57.3078 59.2792 56.9629C58.8332 56.6181 58.3375 56.3428 57.8103 56.1472C57.2819 55.9515 56.7268 55.8375 56.164 55.809C55.6003 55.7808 55.0366 55.8388 54.4912 55.9798C54.3668 56.0129 54.2425 56.051 54.1198 56.0942C53.9971 56.1373 53.8777 56.1837 53.7584 56.2351C53.639 56.2881 53.5229 56.3445 53.4085 56.4058C53.2941 56.4655 53.1814 56.5318 53.072 56.6015L44.1988 62.2351C43.8374 62.4639 43.466 62.6794 43.088 62.8817C42.7083 63.0823 42.3237 63.2696 41.9308 63.442C41.5378 63.6145 41.1383 63.772 40.7338 63.9129C40.3292 64.0555 39.9197 64.1815 39.5052 64.2926C37.6964 64.7601 35.828 64.9491 33.9628 64.8529C32.0977 64.7568 30.259 64.3771 28.5083 63.7289C26.7575 63.079 25.1162 62.1655 23.6406 61.0215C22.1651 59.8775 20.8719 58.5164 19.8058 56.9828C19.151 56.0627 18.5889 55.0795 18.1297 54.0483C17.6688 53.0171 17.3123 51.9427 17.0653 50.8419C16.8183 49.7393 16.6823 48.6153 16.6591 47.4862C16.6343 46.3589 16.7221 45.2298 16.9227 44.119C17.3147 41.932 18.1583 39.8507 19.3997 38.0079C20.6419 36.1652 22.2552 34.6021 24.1363 33.4188L47.314 18.6749C47.6738 18.4461 48.0419 18.2306 48.4182 18.0283C48.7946 17.8277 49.1792 17.6404 49.5688 17.468C49.9593 17.2955 50.3564 17.1384 50.7592 16.9971C51.1604 16.8545 51.5682 16.7269 51.9811 16.6158C53.7915 16.1466 55.6633 15.9543 57.5301 16.0488C59.3986 16.1449 61.2405 16.523 62.9946 17.1745C64.7487 17.8244 66.3917 18.7396 67.8706 19.8852C69.3476 21.0327 70.6412 22.3985 71.707 23.9355C72.3635 24.854 72.9289 25.8355 73.3914 26.8667C73.854 27.8979 74.2121 28.9706 74.4624 30.0731C74.7111 31.1756 74.8504 32.2997 74.8753 33.4287C74.9018 34.5578 74.8156 35.6868 74.6166 36.7993C74.5818 36.9817 74.5453 37.164 74.5039 37.3448C74.4641 37.5255 74.421 37.7062 74.3746 37.8852C74.3298 38.0659 74.2801 38.245 74.2287 38.4224C74.1773 38.6015 74.1242 38.7789 74.0662 38.9546L73.6235 40.2859L72.4431 39.3989C71.76 38.8966 71.0554 38.4257 70.3326 37.9831C69.6097 37.542 68.867 37.1309 68.1093 36.7512C66.5924 35.9945 65.0146 35.3667 63.3925 34.8745L62.5039 34.6175L62.5851 33.7305C62.61 33.4271 62.6083 33.122 62.5801 32.8203C62.5536 32.5186 62.4989 32.2185 62.4193 31.925C62.3381 31.6332 62.2336 31.3464 62.1027 31.0728C61.9733 30.7976 61.8192 30.5357 61.6434 30.287C61.3199 29.8326 60.9292 29.4301 60.4845 29.0933C60.0406 28.755 59.5474 28.4866 59.0222 28.2975C57.967 27.9146 56.8199 27.8632 55.7346 28.1499C55.6086 28.1831 55.4843 28.2212 55.3632 28.2627C55.2405 28.3058 55.1195 28.3539 55.0001 28.4053C54.8824 28.4566 54.7647 28.5147 54.6503 28.5744C54.5359 28.6357 54.4232 28.7004 54.3138 28.77L31.1642 43.489C30.8824 43.6664 30.6188 43.8736 30.38 44.1057C30.1413 44.3379 29.9258 44.5948 29.7384 44.87C29.5527 45.1469 29.3955 45.4418 29.2692 45.7504C29.1432 46.0604 29.0504 46.3804 28.9907 46.7087C28.9327 47.0452 28.9078 47.3868 28.9161 47.7283C28.936 48.4119 29.0898 49.085 29.3687 49.7095C29.5094 50.0204 29.6798 50.3169 29.8777 50.5948C30.1977 51.0524 30.5856 51.4603 31.0283 51.8018C31.4701 52.1449 31.9614 52.4189 32.4856 52.6142C33.5396 53.006 34.6877 53.069 35.7782 52.7949C35.9026 52.7601 36.0269 52.7219 36.1496 52.6788C36.2706 52.6357 36.3917 52.5877 36.511 52.5363C36.6299 52.4846 36.7466 52.4282 36.8609 52.3672C36.9753 52.3075 37.088 52.2428 37.1974 52.1732L46.0706 46.5495C46.4337 46.3174 46.8034 46.0986 47.1831 45.8963C47.5611 45.6924 47.9474 45.505 48.3419 45.3309C48.7352 45.1584 49.1351 45.0014 49.5406 44.8601C49.9468 44.7175 50.358 44.5915 50.7741 44.4821C52.5846 44.0112 54.4547 43.8189 56.3232 43.9118C58.1916 44.0063 60.0336 44.3843 61.7877 45.0342C63.5401 45.6841 65.1847 46.5976 66.6619 47.7449C68.1408 48.8905 69.434 50.255 70.5 51.7919C71.1566 52.712 71.7202 53.6935 72.1828 54.7247C72.6453 55.7553 73.0041 56.8294 73.2538 57.9311C73.5025 59.032 73.6418 60.1561 73.6683 61.2851C73.6948 62.4158 73.607 63.5448 73.4097 64.6556C73.2142 65.7463 72.9058 66.8136 72.4895 67.8405C72.0736 68.8676 71.5513 69.8484 70.9311 70.7667C70.3127 71.6852 69.5998 72.5374 68.804 73.3083C68.0082 74.0793 67.1344 74.7656 66.1961 75.3559L43.0449 90.0997C42.6818 90.3302 42.3104 90.5474 41.9324 90.7496C41.5528 90.9519 41.1665 91.1392 40.7719 91.3117C40.379 91.4857 39.9794 91.6432 39.5732 91.7858C39.1687 91.9284 38.7575 92.0561 38.343 92.1671Z" fill="white"/>
</svg>
